# Blender 4.4.3
# www.blender.org
mtllib computer.mtl
o Cube
v 1.000000 1.754696 -0.409248
v 1.000000 -0.030150 -0.409248
v 1.000000 1.754696 0.409248
v 1.000000 -0.030150 0.409248
v -1.000000 1.754696 -0.409248
v -1.000000 -0.030150 -0.409248
v -1.000000 1.754696 0.409248
v -1.000000 -0.030150 0.409248
vn -0.0000 1.0000 -0.0000
vn -0.0000 -0.0000 1.0000
vn -1.0000 -0.0000 -0.0000
vn -0.0000 -1.0000 -0.0000
vn 1.0000 -0.0000 -0.0000
vn -0.0000 -0.0000 -1.0000
vt 0.674705 0.982997
vt 0.674705 0.561906
vt 0.961955 0.561906
vt 0.961955 0.984581
vt 0.610044 0.019995
vt 0.610044 0.546906
vt 0.065038 0.546906
vt 0.076015 0.019995
vt 0.690389 0.225175
vt 0.729549 0.225175
vt 0.729549 0.475175
vt 0.690389 0.475175
vt 0.541602 0.292573
vt 0.607189 0.292573
vt 0.607189 0.542573
vt 0.541602 0.542573
vt 0.962126 0.020306
vt 0.959111 0.548415
vt 0.683232 0.546403
vt 0.685428 0.021504
vt 0.546399 0.265970
vt 0.602216 0.265970
vt 0.602216 0.515970
vt 0.546399 0.515970
s 0
usemtl Material
f 1/1/1 5/2/1 7/3/1 3/4/1
f 4/5/2 3/6/2 7/7/2 8/8/2
f 8/9/3 7/10/3 5/11/3 6/12/3
f 6/13/4 2/14/4 4/15/4 8/16/4
f 2/17/5 1/18/5 3/19/5 4/20/5
f 6/21/6 5/22/6 1/23/6 2/24/6
